<mxfile host="app.diagrams.net" modified="2023-07-25T16:31:35.608Z" agent="Mozilla/5.0 (Windows NT 10.0; Win64; x64) AppleWebKit/537.36 (KHTML, like Gecko) Chrome/115.0.0.0 Safari/537.36 Edg/115.0.1901.183" version="21.6.3" etag="haMd0kV5begdxMVJfvnK" type="github">
  <diagram name="Page-1" id="l8Z4-18KQddb0AkWS4WB">
    <mxGraphModel>
      <root>
        <mxCell id="0" />
        <mxCell id="1" parent="0" />
      </root>
    </mxGraphModel>
  </diagram>
</mxfile>
